# xmcd
#
# Track frame offsets: 
#        150
#        14647
#        31983
#        50580
#        64190
#        80984
#        97096
#        111158
#        129003
#        148714
#        165702
#        180244
#        197259
#
# Disc length: 2918 seconds
#
# Revision: 0
# Processed by: cddbd v1.5.2PL0 Copyright (c) Steve Scherf et al.
# Submitted via: ExactAudioCopy v0.99pb4
#
DISCID=af0b640d
DTITLE=Éric Goulet - Volume 1
DYEAR=2011
DGENRE=Country
TTITLE0=Tu Sais Bien
TTITLE1=Ce N'est Pas Mon Jour
TTITLE2=La Dernière Marche
TTITLE3=Quand Nos Coeurs Seront Unis
TTITLE4=Chacun Dans Son Espace
TTITLE5=Je Ferme Grand Les Yeux
TTITLE6=L'Hôtel Des Coeurs Brisés
TTITLE7=Ton Amour Va Me Rendre Fou
TTITLE8=Salut Les Amoureux
TTITLE9=Danse Avec Moi
TTITLE10=Mauvaise Vie
TTITLE11=Souviens-Toi De Moi
TTITLE12=L'Âme À La Tendresse
EXTD=
EXTT0=
EXTT1=
EXTT2=
EXTT3=
EXTT4=
EXTT5=
EXTT6=
EXTT7=
EXTT8=
EXTT9=
EXTT10=
EXTT11=
EXTT12=
PLAYORDER=
